<svg id="stand" xmlns="http://www.w3.org/2000/svg" xmlns:xlink="http://www.w3.org/1999/xlink" width="258" height="69" viewBox="0 0 258 69">
  <defs>
    <style>
      .cls-1, .cls-4, .cls-5, .cls-50, .cls-55, .cls-68 {
        fill: #fff;
      }

      .cls-1, .cls-10, .cls-11, .cls-12, .cls-13, .cls-14, .cls-15, .cls-16, .cls-17, .cls-18, .cls-19, .cls-2, .cls-20, .cls-21, .cls-22, .cls-23, .cls-3, .cls-30, .cls-31, .cls-32, .cls-33, .cls-34, .cls-35, .cls-36, .cls-37, .cls-38, .cls-4, .cls-40, .cls-41, .cls-43, .cls-44, .cls-45, .cls-46, .cls-47, .cls-49, .cls-5, .cls-6, .cls-60, .cls-61, .cls-62, .cls-63, .cls-64, .cls-65, .cls-66, .cls-67, .cls-68, .cls-7, .cls-74, .cls-75, .cls-76, .cls-77, .cls-8, .cls-9 {
        fill-rule: evenodd;
      }

      .cls-1, .cls-37 {
        opacity: 0.2;
      }

      .cls-2 {
        fill: #c3cad1;
      }

      .cls-3 {
        fill: #9faebd;
      }

      .cls-4, .cls-46 {
        opacity: 0.5;
      }

      .cls-5 {
        opacity: 0.8;
      }

      .cls-6 {
        fill: #bbc2c9;
      }

      .cls-7 {
        fill: #ffa719;
      }

      .cls-8 {
        fill: #efbd84;
      }

      .cls-9 {
        fill: #d58956;
      }

      .cls-10 {
        fill: #f2cfb6;
      }

      .cls-11, .cls-59 {
        fill: #4f4f4f;
      }

      .cls-12 {
        fill: #837277;
      }

      .cls-13 {
        fill: #ff933f;
        opacity: 0.1;
      }

      .cls-14 {
        fill: #0a84c8;
      }

      .cls-15, .cls-20 {
        fill: #0c7dba;
      }

      .cls-15 {
        filter: url(#filter);
      }

      .cls-16 {
        fill: #c3bed4;
      }

      .cls-17 {
        fill: #9894a8;
      }

      .cls-18 {
        fill: #b3aec8;
      }

      .cls-19, .cls-54, .cls-57 {
        fill: #008fdd;
      }

      .cls-20 {
        filter: url(#filter-2);
      }

      .cls-21 {
        fill: #a4a0b5;
      }

      .cls-22 {
        fill: #6d6b78;
      }

      .cls-23, .cls-29 {
        fill: #b18f7e;
      }

      .cls-24, .cls-35 {
        fill: #787cf3;
      }

      .cls-25, .cls-34 {
        fill: #fea134;
      }

      .cls-26, .cls-36 {
        fill: #45b2aa;
      }

      .cls-27, .cls-33 {
        fill: #a82630;
      }

      .cls-28, .cls-32 {
        fill: #ff7a66;
      }

      .cls-30 {
        fill: #896351;
      }

      .cls-31 {
        fill: #cdc7d4;
      }

      .cls-38 {
        fill: #ebab3c;
      }

      .cls-39, .cls-40 {
        fill: #4a4464;
      }

      .cls-41 {
        fill: #98a5b2;
      }

      .cls-42 {
        fill: #f0ab8c;
      }

      .cls-43 {
        fill: #ffb695;
      }

      .cls-44 {
        fill: #444348;
      }

      .cls-45 {
        fill: #ffa618;
      }

      .cls-46 {
        fill: #fa8b00;
      }

      .cls-47 {
        fill: #444249;
      }

      .cls-48 {
        fill: #d0d5da;
      }

      .cls-49 {
        fill: #f1cfb6;
      }

      .cls-51 {
        font-size: 17px;
      }

      .cls-51, .cls-53, .cls-56 {
        fill: #003f68;
      }

      .cls-51, .cls-53, .cls-55, .cls-57, .cls-58, .cls-59 {
        font-family: Roboto;
      }

      .cls-52 {
        fill: #d9dce3;
      }

      .cls-53, .cls-55, .cls-59 {
        font-size: 13px;
      }

      .cls-53 {
        opacity: 0.6;
      }

      .cls-55 {
        font-weight: 500;
      }

      .cls-56 {
        font-size: 19px;
        opacity: 0.7;
        font-family: "Material Icons";
      }

      .cls-57 {
        font-size: 12px;
      }

      .cls-58 {
        font-size: 20px;
        fill: #da6c35;
      }

      .cls-59 {
        font-weight: 300;
      }

      .cls-60 {
        fill: #f0c07c;
      }

      .cls-61 {
        fill: url(#linear-gradient);
      }

      .cls-62 {
        fill: url(#linear-gradient-2);
      }

      .cls-63 {
        fill: #fcb116;
      }

      .cls-64 {
        fill: url(#linear-gradient-3);
      }

      .cls-65 {
        fill: url(#linear-gradient-4);
      }

      .cls-66 {
        fill: url(#linear-gradient-5);
      }

      .cls-67 {
        fill: url(#linear-gradient-6);
      }

      .cls-69 {
        fill: #fe8e34;
      }

      .cls-70 {
        fill: #e17a28;
        filter: url(#filter-3);
      }

      .cls-71 {
        fill: #535e91;
      }

      .cls-72 {
        fill: #3942d2;
      }

      .cls-73 {
        fill: #26283f;
      }

      .cls-74 {
        fill: #6c7098;
      }

      .cls-75 {
        fill: #004fb2;
      }

      .cls-76 {
        fill: #b5cee7;
      }

      .cls-77 {
        fill: #e2a469;
      }
    </style>
    <filter id="filter" x="262" y="432" width="136" height="147" filterUnits="userSpaceOnUse">
      <feGaussianBlur result="blur" in="SourceAlpha"/>
      <feFlood result="flood" flood-opacity="0.11"/>
      <feComposite result="composite" operator="out" in2="blur"/>
      <feOffset result="offset" dx="-4.145" dy="2.796"/>
      <feComposite result="composite-2" operator="in" in2="SourceAlpha"/>
      <feBlend result="blend" in2="SourceGraphic"/>
    </filter>
    <filter id="filter-2" x="-30" y="455" width="274" height="134" filterUnits="userSpaceOnUse">
      <feGaussianBlur result="blur" in="SourceAlpha"/>
      <feFlood result="flood" flood-opacity="0.11"/>
      <feComposite result="composite" operator="out" in2="blur"/>
      <feOffset result="offset" dx="3.28" dy="3.774"/>
      <feComposite result="composite-2" operator="in" in2="SourceAlpha"/>
      <feBlend result="blend" in2="SourceGraphic"/>
    </filter>
    <linearGradient id="linear-gradient" x1="108.406" y1="22.385" x2="120.594" y2="16.959" gradientUnits="userSpaceOnUse">
      <stop offset="-0.25" stop-color="#e48a41"/>
      <stop offset="1.25" stop-color="#eca553"/>
    </linearGradient>
    <linearGradient id="linear-gradient-2" x1="101.656" y1="22.041" x2="148.375" y2="1.24" gradientUnits="userSpaceOnUse">
      <stop offset="-0.25" stop-color="#eba15a"/>
      <stop offset="1.25" stop-color="#fff461"/>
    </linearGradient>
    <linearGradient id="linear-gradient-3" x1="88.188" y1="22.016" x2="121.25" y2="7.296" gradientUnits="userSpaceOnUse">
      <stop offset="-0.25" stop-color="#e45820" stop-opacity="0.996"/>
      <stop offset="1.25" stop-color="#ed861d"/>
    </linearGradient>
    <linearGradient id="linear-gradient-4" x1="70.488" y1="33.625" x2="96.106" y2="22.219" gradientUnits="userSpaceOnUse">
      <stop offset="-0.25" stop-color="#ffec00" stop-opacity="0.996"/>
      <stop offset="1.25" stop-color="#f99c1c"/>
    </linearGradient>
    <linearGradient id="linear-gradient-5" x1="72.967" y1="28.406" x2="92.69" y2="19.625" gradientUnits="userSpaceOnUse">
      <stop offset="-0.25" stop-color="#f19f19" stop-opacity="0.996"/>
      <stop offset="1.25" stop-color="#ec7b1e"/>
    </linearGradient>
    <linearGradient id="linear-gradient-6" x1="142.907" y1="51.063" x2="218.781" y2="17.281" gradientUnits="userSpaceOnUse">
      <stop offset="-0.25" stop-color="#de4920" stop-opacity="0.996"/>
      <stop offset="1.25" stop-color="#fec34d"/>
    </linearGradient>
    <filter id="filter-3" x="-71" y="555" width="100" height="60" filterUnits="userSpaceOnUse">
      <feGaussianBlur result="blur" in="SourceAlpha"/>
      <feFlood result="flood" flood-opacity="0.11"/>
      <feComposite result="composite" operator="out" in2="blur"/>
      <feOffset result="offset" dx="1.414" dy="1.414"/>
      <feComposite result="composite-2" operator="in" in2="SourceAlpha"/>
      <feBlend result="blend" in2="SourceGraphic"/>
    </filter>
  </defs>
  <path class="cls-1" d="M-98.857,269.3s203.387-46.091,240.446,85.735c0,0,131.833-78.967,237.866,47.7,0,0,29.338-9.347,43.19,25.14,0,0,69.305-12.57,70.264,53.5,0,0,71.354-7.108,79.934,55.438L578,551H-240.03l0.645-281.057Z"/>
  <path class="cls-2" d="M559.72,530l-1.08-74.24-3.24-8.64-4.32-3.24L551,431l-14.24-1.16H534.6l-3.24,23.76L529.2,459l-1.08,19.16,1.08,38.88h-3.24l1.08-11.88-6.48-5.4V459H502.2l-1.08,48.32-3.24,1.08-3.24,1.08-5.4,4.32-8.64,6.48-3.24-15.12V459.84l-17.28-1.08L459,471.68l-2.16,27-9.72,10.8-14.04-37.52,3.24-11.88,1.08-37.8-17.28-1.08-1.08,23.76L406.08,492.2l-12.96-31.32,1.08-29.16-1.08-25.92H388.8v-4.32H375.84v4.32h-4.32v29.16L367.2,492.2l-20.52,7.56-15.12,5.4L312.12,503l-5.4-25.92,4.32-39.96v-27h-1.08v-8.64h-4.32v-4.32H293.76v4.32h-3.24v8.64h-2.16v16.2h-6.48v25.92l-9.72,1.08-3.24,1.08,4.32,56.16-27,1.08,6.48-65.88-3.24-18.36h-9.72v9.72h-3.24V454.4l-1.08,7.56-4.32,5.4-7.56-5.4L225.72,422l-18.36,2.16v21.6l-1.08,51.84-9.72,9.72L179.28,459.8l-7.56-44.28h-6.48v-5.4H162v5.4h-7.56v25.92h-2.16v-27h-2.16v27l-6.48,22.68H128.52v27L122.04,503l-6.48,7.56-4.32-5.4-1.08-12.96L108,445.76l-7.56-7.56H98.28l-6.48,7.56v9.72L81,457.64l1.08-43.2H79.92v-4.32H64.8l-2.16,5.4V432.8l-5.4,37.8-16.2-4.32L23.76,512.72l-16.2-3.24,1.08-43.2V441.44l-6.48-4.32v-8.64H4.32V427.4l-2.16-1.08v-5.4H3.24v-2.16l-2.16-1.08-2.16-4.32H-3.24v4.32l-1.08,1.08,1.08,1.08v14.04l-1.08,1.08v2.16l1.08,1.08-2.16,3.24-4.32,3.24-6.48,7.56-3.24,29.16-3.24,14.04L-29.16,503l-7.56-14.04V444.68H-37.8V416.6h-2.16v8.64h-7.56v4.32h-8.64v23.76l-1.08,60.48-19.44,15.12-5.4,2.16-1.08-10.8V481.4l-5.4-9.72h-6.48v44.28L-96,524h-7v9h-28l-11,34H559Z"/>
  <path id="kuwait" class="cls-3" d="M-85.28,565.48V559h3.24l1.08-2.16,2.16-21.6V507.16c-1.525-.554-2.16-3.24-2.16-3.24a3.733,3.733,0,0,1,3.24-4.32v-9.72h2.16v9.72a4.559,4.559,0,0,1,3.24,3.24c-0.219,3.386-2.16,4.32-2.16,4.32v28.08l1.08,21.6,1.08,1.08V548.2H-68v9.72h1.08V537.4h3.24v-4.32h4.32V526.6h1.08v2.16h1.08V526.6h1.08v2.16h1.08V526.6h1.08v2.16h1.08V526.6h1.08v2.16h1.08V526.6h1.08v2.16h1.08V526.6h1.08v2.16h1.08V526.6h1.08v2.16h1.08V526.6h1.08v2.16h1.08V526.6H-41v2.16h1.08V526.6h1.08v2.16h1.08V526.6h1.08v2.16h1.08V526.6h1.08v2.16h1.08V526.6h1.08v2.16h2.16v-5.4c1.277-6.481,10.8-10.8,10.8-10.8h2.16v-4.32h2.16v4.32c8.321,0.548,12.96,9.72,12.96,9.72v6.48l1.08,1.08H1.12V494.2H8.68v-1.08H6.52v-1.08H7.6v-1.08H6.52v-3.24H9.76a3.52,3.52,0,0,1,0-1.08c0.111,0-3.24-1.08-3.24-1.08v-1.08H9.76V483.4h5.4v1.08h1.08V483.4h1.08v2.16l-1.08,1.08H14.08v1.08h3.24v3.24H16.24v1.08h1.08v1.08H15.16v1.08h7.56v35.64H23.8l1.08-3.24h1.08l1.08,2.16v4.32h3.24V532l-2.16-38.88v-54h3.24v-3.24l5.4-1.08h10.8l7.56,1.08,4.32,35.64v51.84h3.24V488.8l2.16-3.24V467.2l3.24-6.48v-3.24H82.12l4.32,9.72v20.52h1.08v54H88.6v-7.56h1.08v-5.4h2.16V499.6h1.08V484.48H94V483.4h2.16v-1.08h12.96v1.08h2.16v1.08h1.08V499.6h1.08v20.52h10.8v7.56h3.24l1.08-54,0.06,0.014,0.663,0.151,0.187,0.043,0.436,0.1h0l0.318,0.073,0.1,0.023h0l-0.1-.023-0.318-.073h0l-0.436-.1-0.187-.043-0.663-.151-0.06-.014c-4.175-.955-8.64-5.4-8.64-5.4v-3.24c1.01-2,8.64-2.16,8.64-2.16l1.08-1.08v-7.56c-1.795-.513-7.56-5.4-7.56-5.4H121v-1.08l3.24-1.08V445.6h-2.16v-1.08h2.16v-1.08h-1.08v-1.08H121v-1.08l3.24-1.08v-7.56l3.24-2.16h1.08v-3.24h-1.08v-2.16h3.24v-3.24h-3.24v-2.16h3.24v-3.24h-2.16l-1.08-1.08v-1.08h3.24v-3.24h-2.16v-1.08h2.16l1.08,4.88h-1.08v-2.16h1.08V405.4h-1.08v-1.08h1.08l1.08,1.64H131.8v-1.08h1.08V386.52h1.08v18.36h1.08v1.08h-1.08v-1.64h1.08v1.08h-1.08l1.08,7.28h1.08v2.16h-1.08v-4.88h2.16v1.08h-2.16v3.24h3.24v1.08l-1.08,1.08h-2.16v3.24h3.24v2.16h-3.24v3.24h3.24v2.16H137.2v3.24h1.08l4.32,2.16v7.56l1.08,1.08h2.16v1.08h-1.08l-2.16,1.08v1.08h2.16v1.08H142.6v1.08l1.08,1.08h1.08v1.08h-1.08c-0.441,2.283-6.48,5.4-6.48,5.4v7.56c5.024,1.379,9.72,3.24,9.72,3.24v2.16c-0.549,4.153-9.72,6.48-9.72,6.48l1.08,41.04,2.16,3.24h5.4v8.64l2.16,1.08v-21.6h7.56V480.16l4.32-11.88H175l4.32,11.88v49.68l3.24,1.08V459.64h1.08V442.36h3.24V429.4h3.24v-2.16h4.32v-27l1.08,17.84h1.08v-0.56l11.88,11.88v84.24h1.08V485.56l5.4-16.2h7.56l4.32,16.2V510.4l3.24,5.4c4.566,4.931,5.4,0,5.4,0l-1.08-9.72c-0.5-6.109,6.48-5.4,6.48-5.4l1.08-23.76H239.8v-2.16h3.24V472.6h2.16v2.16h3.24V472.6h-1.08v-2.16h16.2v2.16H261.4v1.08h5.4l2.16,1.08v47.52h3.24l2.16,2.16v4.32l2.16-1.08v-4.32l-1.08-5.4v-32.4l2.16-3.24,9.72-1.08h8.64l9.72,2.16v18.36h1.08V466.12l9.72-3.24h3.24l9.72,5.4v34.56h3.24v11.88l2.16,1.08,1.08-2.16v-108c1.262-3.13,14.04-11.88,14.04-11.88l1.08,28.08c2.592,5.589,17.28,12.96,17.28,12.96v73.44h5.4V461.8l1.08-2.16h1.08l1.08,2.16h9.88v-2.16h4.32v2.16h2.16v-3.24h1.08l2.16,4.32c1.341,1.144,1.08,69.12,1.08,69.12h7.56V510.4c0-8.455.587-40.921,0.587-46.23,0.542-10.1,21.964-28.289,21.933-28.29h1.08c-6.757,18.966,6.48,28.08,6.48,28.08,0.511,12.908-4.32,50.76-4.32,50.76l1.08,27,7.56-1.08v-59.4h7.56L450.4,478h7.56l2.16,3.24v36.72h2.16v5.4h1.08V500.68h21.6v32.4h9.72v3.24h2.16v6.48H499V516.88l0.033-.835a14.562,14.562,0,0,1,1.14-27.837l0.987-17.768,0.018-.279a8.631,8.631,0,0,1,1.086-16.93l1.056-43.271h1.08l1.06,43.478a8.635,8.635,0,0,1,1.234,16.317l0.946,17.965,0.019,0.517a14.562,14.562,0,0,1,1.03,27.807l0.031,0.836v24.84l2.16-1.08V537.4h1.08v2.16l1.08,2.16,5.4,4.32v2.16h2.16v3.24h2.16v-2.16h4.32v-2.16h-4.32v-1.08L526,542.8l1.08,2.16,1.08-23.76V486.64h1.08l1.08,34.56,1.08,33.48h1.08v-2.16l1.08-1.08v-5.4h4.32v-4.32l3.24-3.24v-3.24h1.08v4.32h2.16V521.2l0.024-.487a10.8,10.8,0,0,1,1.045-20.895l0.011-.218,1.08-46.44h1.08l1.08,46.44,0,0.054a10.8,10.8,0,0,1,1.066,21.331l0.011,0.215v15.12h2.16l1.08-2.16v-6.48h1.08v7.56l5.4,4.32v6.48h1.08v-4.32l3.24-3.24h2.16l3.24,3.24v6.48h5.4l1.08,16.2Z"/>
  <path class="cls-4" d="M659,386s-20.933-5.411-26-3c0,0-9.872-20.879-36-19,0,0-17.133.645-26,10,0,0-17.125-19.835-36-1,0,0-9.374-29.973-37-26,0,0-24.953-.433-34,24,0,0-24.5-.316-25,15H659Z"/>
  <path class="cls-5" d="M3,404s-11.584-22.838-34-3c0,0-11.536-13.29-28-7,0,0-9.854,5.872-3,12H10S9.417,401.224,3,404Z"/>
  <path class="cls-6" d="M-81,532L926,552V703H-81V532Z"/>
  <path class="cls-7" d="M412.375,520.438h94.563v4H412.375v-4Zm0,24.406h94.563v4.031H412.375v-4.031Zm0,24.125h94.563v4H412.375v-4Z"/>
  <path class="cls-8" d="M501.391,520.74V508.992h-3.71V497.244H482.533V502.5H464.91l-0.309,6.492h-0.927V497.244H448.216V502.5h-6.8v-5.256H423.483v11.439h-5.565V520.74h83.473Z"/>
  <path class="cls-8" d="M491.5,544.855V530.633H472.949v2.474H462.437v-6.493h-22.26v-0.927H422.555v19.168H491.5Z"/>
  <path class="cls-8" d="M502.01,568.97v-7.111h-7.729v-9.584H472.639v2.164H461.51v2.782H448.834v-6.492h-23.5V568.97H502.01Z"/>
  <path class="cls-9" d="M448.844,557.219h1.25v11.75h-1.25v-11.75Zm12.969-2.781h4.031v14.531h-4.031V554.438Zm10.812-2.157h4.969v2.157h-4.969v-2.157Zm13.927,9.578h3.4v7.111h-3.4v-7.111Zm-61.521-11.14h5.563v18.25h-5.563v-18.25Zm36.469,3.719h3.406v2.781H461.5v-2.781Z"/>
  <path class="cls-10" d="M437.094,550.438h4.937v5.25h-4.937v-5.25Zm0.312,13.875h4.625v4.656h-4.625v-4.656Zm16.688-7.094H457.5v3.094h-3.406v-3.094Zm0.312,8.969H457.5v2.781h-3.094v-2.781Zm17.625-11.75h2.157v3.718h-2.157v-3.718Zm0,10.812h2.157v3.719h-2.157V565.25Zm12.657-12.969h2.5v4.344h-2.5v-4.344Zm9.593,9.594h3.407V564h-3.407v-2.125Z"/>
  <path class="cls-9" d="M462.438,533.094h1.218v11.75h-1.218v-11.75Zm12.968-2.469h1.875v14.219h-1.875V530.625Zm-2.468,0h2.468v2.469h-2.468v-2.469Zm-34.313-4.031h5.281v18.25h-5.281v-18.25Zm-16.094-.906h3.094v19.156h-3.094V525.688Z"/>
  <path class="cls-10" d="M450.688,526.594h5.281v4.656h-5.281v-4.656Zm0,13.625h4.656v4.625h-4.656v-4.625ZM468,533.094h3.094v3.094H468v-3.094Zm0,8.969h2.781v2.781H468v-2.781Zm14.531-11.438h3.719v3.719h-3.719v-3.719Zm0,10.531h3.719v3.688h-3.719v-3.688Zm-51.625-15.468h4v4h-4v-4Zm0.625,15.468h3.688v3.688h-3.688v-3.688Z"/>
  <path class="cls-9" d="M464.91,502.5h5.256v17.931h-2.473V508.683H464.91V502.5Zm23.5,6.5h1.25v11.438h-1.25V509Zm-5.875-11.75h3.407v5.25h-3.407v-5.25ZM454.406,509h1.25v11.438h-1.25V509Zm-6.187-11.75h3.406v5.25h-3.406v-5.25Zm-17.625,5.25h5.562v18.25h-5.562V502.5Zm-7.125-5.25H427.5v12.063h-4.031V497.25Zm-5.844,11.438H421V520.75h-3.375V508.688Z"/>
  <path class="cls-10" d="M432.75,497.25h3.719v3.406H432.75V497.25Zm9.906,5.25h5.25v4.656h-5.25V502.5Zm14.219-5.25h1.875v3.406h-1.875V497.25Zm0,8.656h1.875v2.782h-1.875v-2.782ZM459.938,509h3.093v2.781h-3.093V509Zm0,8.656h3.093v2.782h-3.093v-2.782Zm-17.282-1.531h5.25v4.313h-5.25v-4.313Zm34.313,0h4.937v4.313h-4.937v-4.313Zm0-13.625h4.937v4.344h-4.937V502.5Zm13.906-5.25h1.875v2.781h-1.875V497.25Zm0,8.344h1.875v3.094h-1.875v-3.094Zm3.094,3.094h3.406v3.093h-3.406v-3.093Zm0,8.656h3.406v3.094h-3.406v-3.094Zm-68.344-9.281h2.813v3.718h-2.813v-3.718Zm0,9.593h2.813v2.782h-2.813v-2.782Z"/>
  <path class="cls-11" d="M507.884,547.637l-5.565,14.515v-0.293h-1.168l5.453-14.222h-0.575v-2.164h0.456l-5.429-14.159v13.541h-1.28v-14.1l-5.405,14.1h-1.28l6.578-17.159-1.244-3.246h1.28l0.071,0.186V524.45h2.418l-1.138,2.968v0.557l6.828,17.807h-0.64v1.855h0.64Zm-5.429-27.206,3.675-9.584h-4.739v-2.164h5.853v0.927h0.64l-4.149,10.821h-1.28Zm-69.079,63.378h-0.928v0.928h-8.965v-0.29h-1.855v0.29h-8.657v-0.928h-1.546l10.048-18.086-10.048-18.086h1.546v-1.855h-1.546L421.473,527.7,411.425,509.61h1.546v-0.927h8.657V506.21h1.855v2.473h8.965v0.927h0.928l-9.893,17.808v0.557l9.893,17.807h-0.928v1.855h0.928l-9.893,17.808V566Zm-9.893-1.236h7.351l-7.351-13.232v13.232Zm-1.855-71.726h-7.661l7.661,13.789V510.847Zm0,19.91-8.176,14.716h8.176V530.757Zm0,16.88H413.28l8.348,15.026V547.637Zm0,21.147-7.661,13.789h7.661V568.784Zm9.206-57.937h-7.351v13.232Zm-7.351,20.467v14.159h7.866Zm8.038,16.323h-8.038v14.469Zm69.535,14.222h-1.28V548.874h1.28v12.985Zm-1.588,0h-1.28l-4.979-12.985h1.28Zm-1.3,11.13-3.675,9.584h5.287v-9.584h1.28v9.584h5.074l-3.675-9.584h1.28l4.149,10.82h-0.64v0.928h-6.188v-0.29h-1.28v0.29h-7.211v-0.928h0.17l4.149-10.82h1.28Z"/>
  <path class="cls-12" d="M411.125,506.531h1.844V584.75h-1.844V506.531Zm20.688,0h1.875V584.75h-1.875V506.531Zm73.906,0h1.844V584.75h-1.844V506.531ZM491.5,524.125h1.875v20.719H491.5V524.125Zm0,24.75h1.875v3.406H491.5v-3.406Zm0,24.094h1.875V584.75H491.5V572.969Z"/>
  <path id="Shape_12_copy" data-name="Shape 12 copy" class="cls-13" d="M-39,459l289-14V589H-40Z"/>
  <path class="cls-14" d="M333,422l-81,23V589H406V459Z"/>
  <path id="Shape_14_copy" data-name="Shape 14 copy" class="cls-15" d="M333,432l-71,22V579H398V465Z"/>
  <path class="cls-16" d="M304,534v55h60V534H304Z"/>
  <path id="Shape_15_copy_2" data-name="Shape 15 copy 2" class="cls-17" d="M298,534v55h6V534h-6Zm64,0v55h6V534h-6Z"/>
  <path id="Shape_15_copy" data-name="Shape 15 copy" class="cls-18" d="M334,539v47l30,3V534Z"/>
  <path class="cls-19" d="M-37,459l289-14V589H-38Z"/>
  <path id="Shape_12_copy_2" data-name="Shape 12 copy 2" class="cls-20" d="M-29,466l273-11V589H-30Z"/>
  <path class="cls-21" d="M384,530H298v4h86v-4Z"/>
  <path class="cls-12" d="M-3,589V523l211-5v71H-3Z"/>
  <path class="cls-22" d="M2,530l200-5v64H2V530Z"/>
  <path class="cls-23" d="M9,555l193-2v5L9,561v-6Z"/>
  <rect id="Rectangle_7_copy_10" data-name="Rectangle 7 copy 10" class="cls-24" x="67" y="565" width="17" height="20"/>
  <rect id="Rectangle_7_copy_17" data-name="Rectangle 7 copy 17" class="cls-25" x="48" y="565" width="17" height="20"/>
  <rect id="Rectangle_7_copy_18" data-name="Rectangle 7 copy 18" class="cls-26" x="29" y="565" width="17" height="20"/>
  <rect id="Rectangle_7_copy_19" data-name="Rectangle 7 copy 19" class="cls-26" x="10" y="565" width="17" height="20"/>
  <rect id="Rectangle_7_copy_11" data-name="Rectangle 7 copy 11" class="cls-24" x="86" y="565" width="17" height="20"/>
  <rect id="Rectangle_7_copy_12" data-name="Rectangle 7 copy 12" class="cls-26" x="105" y="565" width="17" height="20"/>
  <rect id="Rectangle_7_copy_13" data-name="Rectangle 7 copy 13" class="cls-27" x="124" y="565" width="17" height="20"/>
  <rect id="Rectangle_7_copy_14" data-name="Rectangle 7 copy 14" class="cls-28" x="143" y="565" width="17" height="20"/>
  <rect id="Rectangle_7_copy_15" data-name="Rectangle 7 copy 15" class="cls-24" x="162" y="565" width="17" height="20"/>
  <rect id="Rectangle_7_copy_16" data-name="Rectangle 7 copy 16" class="cls-25" x="181" y="565" width="17" height="20"/>
  <rect class="cls-29" x="9" y="585" width="193" height="4"/>
  <path class="cls-30" d="M15,558v-1H25v1H15Zm13,0v-1H38v1H28Zm14,0v-1H52v1H42Zm13,0v-1H65v1H55Zm13,0v-1H78v1H68Zm13,0v-1H91v1H81Zm13-1v-1h10v1H94Zm14,0v-1h10v1H108Zm14,0v-1h10v1H122Zm14,0v-1h10v1H136Zm14-1v-1h10v1H150Zm14,0v-1h10v1H164Zm14,0v-1h10v1H178Zm14,0v-1h10v1H192ZM12,588v-2H22v2H12Zm12,0v-2H34v2H24Zm12,0v-2H46v2H36Zm12,0v-2H58v2H48Zm12,0v-2H70v2H60Zm12,0v-2H82v2H72Zm12,0v-2H94v2H84Zm12,0v-2h10v2H96Zm12,0v-2h10v2H108Zm12,0v-2h10v2H120Zm12,0v-2h10v2H132Zm12,0v-2h10v2H144Zm12,0v-2h10v2H156Zm12,0v-2h10v2H168Zm12,0v-2h10v2H180Zm12,0v-2h10v2H192Z"/>
  <path class="cls-31" d="M2,561l200-4v3L2,564v-3Z"/>
  <path class="cls-32" d="M66.66,529.873l17-.384,0.7,24.992-17,.384Z"/>
  <path id="Rectangle_7_copy_7" data-name="Rectangle 7 copy 7" class="cls-33" d="M48.665,530.28l17-.384,0.7,24.992-17,.384Z"/>
  <path id="Rectangle_7_copy_8" data-name="Rectangle 7 copy 8" class="cls-34" d="M30.669,530.686l17-.384,0.7,24.992-17,.384Z"/>
  <path id="Rectangle_7_copy_9" data-name="Rectangle 7 copy 9" class="cls-35" d="M12.674,531.092l17-.383,0.7,24.992-17,.383Z"/>
  <path id="Rectangle_7_copy" data-name="Rectangle 7 copy" class="cls-34" d="M84.655,529.467l17-.384,0.7,24.992-17,.384Z"/>
  <path id="Rectangle_7_copy_2" data-name="Rectangle 7 copy 2" class="cls-35" d="M102.651,529.06l17-.383,0.7,24.992-17,.383Z"/>
  <path id="Rectangle_7_copy_3" data-name="Rectangle 7 copy 3" class="cls-35" d="M121.646,528.631l16.995-.383,0.7,24.992-17,.383Z"/>
  <path id="Rectangle_7_copy_4" data-name="Rectangle 7 copy 4" class="cls-32" d="M141.641,528.18l17-.384,0.7,24.992-17,.384Z"/>
  <path id="Rectangle_7_copy_5" data-name="Rectangle 7 copy 5" class="cls-33" d="M159.636,527.751l18-.384L178,553H161Z"/>
  <path id="Rectangle_7_copy_6" data-name="Rectangle 7 copy 6" class="cls-36" d="M178.631,527.3l19-.383,0.7,24.992-19,.383Z"/>
  <path class="cls-37" d="M188,568h3v2h-3v-2Zm-20,0h3v2h-3v-2Zm-18,0h3v2h-3v-2Zm-19,0h3v2h-3v-2Zm-20,0h3v2h-3v-2Zm-19,0h3v2H92v-2Zm-18,0h3v2H74v-2Zm-19,0h3v2H55v-2Zm-19,0h3v2H36v-2Zm-19,0h3v2H17v-2Zm171-33h3v2h-3v-2Zm-20,0h3v2h-3v-2Zm-18,0h3v2h-3v-2Zm-19,0h3v2h-3v-2Zm-20,0h3v2h-3v-2Zm-19,0h3v2H92v-2Zm-18,0h3v2H74v-2Zm-19,0h3v2H55v-2Zm-19,0h3v2H36v-2Zm-19,0h3v2H17v-2Z"/>
  <path class="cls-31" d="M111,529h3v60h-3V529Zm-56,0h3v60H55V529Zm113,0h3v60h-3V529Z"/>
  <path class="cls-38" d="M53,578h7v11H53V578Zm56,0h7v11h-7V578Zm57,0h7v11h-7V578Z"/>
  <rect class="cls-39" x="2" y="530" width="7" height="59"/>
  <path class="cls-40" d="M2,529l200-4v3L2,532v-3Z"/>
  <path class="cls-41" d="M251,446l83-24L55,436l-92,23Z"/>
  <rect class="cls-42" x="319.406" y="554.625" width="2.844" height="3.156"/>
  <path class="cls-43" d="M325.593,547.634v5.71s-0.524,3.616-4.124,3.172a3.778,3.778,0,0,1-3.172-3.172v-0.952a1.859,1.859,0,0,1-1.745-1.745,1.226,1.226,0,0,1,.476-0.951l1.269-1.428,1.427-.952Z"/>
  <path class="cls-44" d="M318.455,550.489h0.635l0.158-1.428a1.658,1.658,0,0,0,.635-1.269s3.929,0.977,5.71-.158c0,0,1.514-.646,0-1.111,0,0,.562-0.389-0.634-0.952,0,0-3.928-.376-4.442-1.11,0,0-2.267-.56-3.013,1.428a4.689,4.689,0,0,0-.476,3.807,0.833,0.833,0,0,1,.951-0.159S318.431,549.586,318.455,550.489Z"/>
  <path class="cls-11" d="M324.324,589.193V593h6.821s1.522-.957-1.269-2.062c0,0-2.285-.478-2.538-1.428C327.338,589.51,324.7,588.663,324.324,589.193Z"/>
  <path class="cls-11" d="M312.428,586.338L311,588.876,316.393,593a1.925,1.925,0,0,0,.317-2.379,3.582,3.582,0,0,1-1.427-2.538S313.33,585.648,312.428,586.338Z"/>
  <path class="cls-11" d="M334.952,565.082v0.793h-1.11v2.856s2.173,0.086,2.062-1.428v-0.476h1.11S337.619,565.02,334.952,565.082Z"/>
  <path class="cls-45" d="M320.993,557.151s2.54-.371,3.649,3.172l1.745,3.966,8.565,0.793v0.635H334l-0.158,3.014h-8.883l-0.159,2.062-0.476.158s3.5,7.117,3.966,8.407a3.637,3.637,0,0,1,.317,2.7l-0.793,7.614-3.965-.476s0.422-6.986.317-8.09c0,0-1.681-3.443-2.7-3.965,0,0-.815,3.825-0.793,3.965l-5.235,6.98-3.331-1.9,4.759-5.71s0.6-5.463.476-6.028a3.023,3.023,0,0,1-.952-2.855l0.159-.318v-0.317h-0.159l-0.158-4.441s0.318-5.221.634-6.345a3.823,3.823,0,0,1,2.538-3.014A13.141,13.141,0,0,1,320.993,557.151Z"/>
  <path class="cls-46" d="M324.324,570.951s0.233,0.473.585,1.195c-6.579.3-8.357-1.512-8.357-1.512l7.822,0.3Zm-2.753,6.247a1.123,1.123,0,0,0-.1-0.06s-0.156.733-.33,1.57a4.839,4.839,0,0,0-3.949-1.416,21,21,0,0,0,.155-2.851S320.577,575.52,321.571,577.2Zm3.387-8.46-0.06.786h-2.477a1.463,1.463,0,0,1-.952-1.111s-2.271-4.971-2.221-7.931l3.49,7.3S322.957,568.812,324.958,568.738Zm9.994-3.032-8.883-.624a1.955,1.955,0,0,1-1.269-1.11l-0.3-4.057c0.049,0.131.1,0.265,0.142,0.408l1.745,3.966,8.565,0.793v0.624Z"/>
  <path class="cls-47" d="M335.9,566.986v0.793h1.586a1.022,1.022,0,0,1,.635.952v0.793h-0.476v18.241a2.521,2.521,0,0,0-3.173,2.221,2.7,2.7,0,0,0,2.7,3.014,2.8,2.8,0,0,0,2.7-3.014H340.5v0.952h19.352v-3.807H340.5v0.793h-0.793v-18.4h-0.793v-1.269a1.611,1.611,0,0,0-1.111-1.269h-1.9Z"/>
  <circle class="cls-48" cx="337.094" cy="590.219" r="1.031"/>
  <path class="cls-8" d="M343.677,568.413v5.552h-1.745v13.166h13.483V574.124H353.67v-5.711h-9.993Z"/>
  <path class="cls-49" d="M346.844,573.969h3.5v3.312h-3.5v-3.312Zm0,10H350.5v3.156h-3.656v-3.156Zm0.312-15.563h2.875v1.282h-2.875v-1.282Z"/>
  <rect id="Rounded_Rectangle_1" data-name="Rounded Rectangle 1" class="cls-50" x="574" y="-210" width="400" height="968" rx="1" ry="1"/>
  <text id="Login" class="cls-51" x="633.212" y="191.563">Login</text>
  <rect id="Rounded_Rectangle_9" data-name="Rounded Rectangle 9" class="cls-52" x="635" y="223" width="280" height="36" rx="2" ry="2"/>
  <text id="User_Name" data-name="User Name" class="cls-53" x="676.213" y="245.563">User Name</text>
  <rect id="Rounded_Rectangle_9_copy" data-name="Rounded Rectangle 9 copy" class="cls-52" x="635" y="274" width="280" height="36" rx="2" ry="2"/>
  <rect id="Rounded_Rectangle_9_copy_2" data-name="Rounded Rectangle 9 copy 2" class="cls-54" x="635" y="325" width="280" height="36" rx="2" ry="2"/>
  <text id="Login-2" data-name="Login" class="cls-55" x="758.701" y="347.403">Login</text>
  <text id="Password" class="cls-53" x="676.213" y="296.563">Password</text>
  <text id="person" class="cls-56" x="645.913" y="251.453">person</text>
  <text id="lock" class="cls-56" x="645.913" y="302.453">lock</text>
  <text id="Forgot_Password_ID_" data-name="Forgot Password/ID?" class="cls-57" x="639.213" y="391.563">Forgot Password/ID?</text>
  <text id="DGS_Inventory" data-name="DGS Inventory" class="cls-58" x="-7" y="131.722">DGS Inventory</text>
  <text id="This_is_a_same_text_about_dgs_inventory_project_" data-name="This is a same text about dgs inventory project " class="cls-59" x="-6" y="153.722">This is a same text about dgs inventory project </text>
  <rect class="cls-50" x="82.563" y="16.781" width="12.594" height="5.063"/>
  <path class="cls-60" d="M111.379,30.555c11.527,6.137,30.741-8.925,56.9-.675-15.659-7.518-35.448-13.3-47.944-12.981-3.613,2.662-7.362,4.766-11.908,5.447A6.36,6.36,0,0,0,111.379,30.555Z"/>
  <path class="cls-61" d="M108.419,22.51c4.653-.71,8.489-2.9,12.186-5.681a22.958,22.958,0,0,0-7.893,1.3A7.664,7.664,0,0,0,108.419,22.51Z"/>
  <path class="cls-62" d="M101.665,22.439a22.791,22.791,0,0,0,6.8.039,7.64,7.64,0,0,1,4.261-4.152,21.973,21.973,0,0,1,7.673-1.343c7.765-5.761,14.9-14.109,27.964-16.428-4.857.039-15.918,2.92-27.26,6.3C109.593,10.5,103.384,16.472,101.665,22.439Z"/>
  <path class="cls-63" d="M83.416,19.743c-3.836.023-8.688,1.012-14.828,3.476,0-.011.223-4.261,2.105-5.431C71.679,17.388,83,16.1,86.4,14.9a39.342,39.342,0,0,1,7.965-1.832C102.609,7.8,108.648,2.312,116,.378c-4.342,1.413-11.108,10.184-12.159,12.008-8.426,2.732-14.771,4.922-15.45,5.158A9.991,9.991,0,0,0,83.416,19.743Zm18.373,2.59a37.061,37.061,0,0,1-7.473-2.291h0a7.53,7.53,0,0,1-5.115.52A12.663,12.663,0,0,1,96.733,28.3a66.383,66.383,0,0,1,7.2,4.935A11.931,11.931,0,0,1,101.789,22.333Z"/>
  <path class="cls-64" d="M94.3,20.225s0,0,0,0a37.914,37.914,0,0,0,7.474,2.235c1.722-5.786,7.942-12.071,19.469-15.6-4.055,1.156-11.366,3.612-17.591,5.578-8.429,2.658-14.775,4.789-15.455,5.018C91.687,17.059,93.491,19.405,94.3,20.225Z"/>
  <path class="cls-65" d="M68.59,23.129q3.2,2.25,6.344,4.643c8.259-.342,17.6,2.4,23.068,5.85a16.551,16.551,0,0,0-.978-5.258C84.181,20.186,73.694,22.184,68.59,23.129Z"/>
  <path class="cls-66" d="M89.476,20.6a24.4,24.4,0,0,0-6.073-.98c-3.8.022-8.6,1-14.677,3.427,6.042-.646,15.257-2.23,28.207,5.355A12.743,12.743,0,0,0,89.476,20.6Z"/>
  <path class="cls-67" d="M168.512,29.507c11.924-2.1,20-3.2,30.87-3.444-13.759,8.531-35.157,24.983-57.757,24.983-19.6,0-34.08-11.966-37.994-18.188C115.047,46.069,148.216,33.085,168.512,29.507Zm57.207-12.213c-9.68,0-16.539,2.7-26.336,8.769h0a160.667,160.667,0,0,1,58.692,9.756C254.215,25.634,241.415,17.294,225.719,17.294Z"/>
  <path class="cls-68" d="M8.11,53.248C6.172,56.192,4.587,58.621,3.657,59.9a1.054,1.054,0,0,1-.879.419c-0.249.013-1.154,0.02-1.472,0.02-0.769,0-1.35-.048-1.35-0.048S11.509,43.586,12.294,42.447s1.92-2.524,1.918-3.338a14.462,14.462,0,0,1,3.534-.7,0.58,0.58,0,0,1,.608.578c0.642,4.2,3.091,17.937,3.828,21.326,0,0-.754.051-1.546,0.051-0.712,0-1.494-.032-1.763-0.069-0.451-.062-0.65-0.178-0.8-1.024-0.327-1.9-.746-4.4-1.02-6.024H8.11Zm8.587-2.2c-0.236-1.82-1.06-7.815-1.267-8.956-1.482,2.242-4.748,7.157-5.956,8.956H16.7Zm16.837-7.285a5.905,5.905,0,0,1,4.034,1.382,34,34,0,0,0,4.458-.333c-0.169,2.215-1.32,2.552-3.127,2.642a6.229,6.229,0,0,1,.088,1.027,7.466,7.466,0,0,1-7.536,6.962,6.79,6.79,0,0,1-1.926-.259c-0.279.225-.917,0.658-1.165,0.868a0.951,0.951,0,0,0-.461.583c0,0.431.5,0.719,1.943,0.772,1.783,0.07,3.185.021,4.531,0.141,2.685,0.237,3.767,1.358,3.767,3.03,0,3.524-3.563,7.351-10.061,7.351-3.931,0-5.935-1.611-5.935-3.7,0-2.263,2.4-3.623,4.381-4.591a3.023,3.023,0,0,1-2.072-3.058,18.911,18.911,0,0,0,3.326-2.219A4.438,4.438,0,0,1,26,50.737,7.467,7.467,0,0,1,33.534,43.764ZM25.513,63.506c0,1.423,1.362,2.062,3.7,2.062,3.8,0,5.659-2.2,5.659-3.566,0-1.224-1.17-1.692-4.094-1.692a7.309,7.309,0,0,0-2.774.286C27.014,61.056,25.513,62.018,25.513,63.506Zm7.793-17.613c-2.526,0-4.1,2.762-4.1,4.967a2.267,2.267,0,0,0,2.454,2.457c2.763,0,4.117-3.094,4.117-4.987A2.266,2.266,0,0,0,33.306,45.893Zm48.406-1.77a0.676,0.676,0,0,1,.8.554c0.284,1.881,1.234,8.707,1.588,11.116a107.336,107.336,0,0,0,6.353-11.588,8.1,8.1,0,0,1,2.156.341,0.493,0.493,0,0,1,.423.476,1.823,1.823,0,0,1-.227.674,88.25,88.25,0,0,1-8.912,14.656c-4.273,5.577-6.656,7.309-8.138,7.309a2.167,2.167,0,0,1-2.028-1,28.832,28.832,0,0,0,7.634-7.423c-0.6-3.945-1.546-11.36-2.326-14.829A14.858,14.858,0,0,1,81.712,44.123ZM44.132,48.7a32.4,32.4,0,0,0,.778-4,13.977,13.977,0,0,1,2.791-.383c0.467,0,.681.168,0.681,0.513a10.271,10.271,0,0,1-.34,1.688c-0.382,1.577-2.073,8.712-2.895,12.735a1.124,1.124,0,0,1-.95,1.02,17.479,17.479,0,0,1-1.782.08c-0.636,0-1.086-.038-1.086-0.038C41.884,58.376,44.132,48.7,44.132,48.7Zm1.351-7.275a21.99,21.99,0,0,0,3-.275,0.868,0.868,0,0,0,.748-0.775,11.279,11.279,0,0,0,.473-2.5,0.553,0.553,0,0,0-.685-0.559,10.936,10.936,0,0,0-2.764.592A24.239,24.239,0,0,1,45.482,41.428ZM60.748,48.7a32.62,32.62,0,0,0,.779-4,13.96,13.96,0,0,1,2.791-.383c0.468,0,.682.168,0.682,0.513a10.293,10.293,0,0,1-.341,1.688c-0.382,1.577-2.073,8.712-2.895,12.735a1.123,1.123,0,0,1-.95,1.02,17.463,17.463,0,0,1-1.781.08c-0.636,0-1.086-.038-1.086-0.038C58.5,58.376,60.748,48.7,60.748,48.7ZM62.1,41.428a21.99,21.99,0,0,0,2.994-.275,0.867,0.867,0,0,0,.748-0.775,11.227,11.227,0,0,0,.473-2.5,0.553,0.553,0,0,0-.685-0.559,10.943,10.943,0,0,0-2.764.592A24.241,24.241,0,0,1,62.1,41.428ZM73.86,44.553H73.236A42.25,42.25,0,0,1,74.4,40.26a3.772,3.772,0,0,0-4.049,2.928c-0.074.323-.239,0.982-0.319,1.365a2.757,2.757,0,0,0-2.862,2.084c0.31,0.042,1.369.111,2.172,0.111H69.5s-1.851,7.532-2.117,9.134a12.22,12.22,0,0,0-.254,1.933c0,1.722,1.136,2.808,3.5,2.808,3.189,0,4.451-2.348,4.451-3.65a6.629,6.629,0,0,1-3.171,1.092c-1.065,0-1.442-.48-1.442-1.188a5.455,5.455,0,0,1,.153-1.044c0.337-1.5,1.73-7.577,2.1-9.086H73.7c3.125,0,4.164-.924,4.45-2.392A31.02,31.02,0,0,1,73.86,44.553ZM54.35,40.336a29.2,29.2,0,0,0,.707-3.855,11.359,11.359,0,0,1,2.764-.594,0.588,0.588,0,0,1,.688.6,8.281,8.281,0,0,1-.277,1.715c-0.146.6-4.016,17.195-4.016,17.195-0.418,1.747-.839,3.895-1.016,4.881,0,0-.733.076-1.692,0.076-0.57,0-1.141-.025-1.371-0.038-0.3-.018-0.47-0.12-0.379-0.492ZM39.488,5944.15"/>
  <rect class="cls-69" x="-76" y="550" width="110" height="70"/>
  <rect id="Rectangle_15_copy" data-name="Rectangle 15 copy" class="cls-70" x="-71" y="555" width="100" height="60"/>
  <circle class="cls-71" cx="58.5" cy="636.5" r="9.5"/>
  <circle id="Ellipse_1_copy" data-name="Ellipse 1 copy" class="cls-72" cx="58.5" cy="636.5" r="5.781"/>
  <circle id="Ellipse_1_copy_2" data-name="Ellipse 1 copy 2" class="cls-73" cx="58.5" cy="636.5" r="1.406"/>
  <circle id="Ellipse_1_copy_3" data-name="Ellipse 1 copy 3" class="cls-71" cx="-53.5" cy="636.5" r="9.5"/>
  <circle id="Ellipse_1_copy_3-2" data-name="Ellipse 1 copy 3" class="cls-72" cx="-53.5" cy="636.5" r="5.781"/>
  <circle id="Ellipse_1_copy_3-3" data-name="Ellipse 1 copy 3" class="cls-73" cx="-53.5" cy="636.5" r="1.406"/>
  <path class="cls-74" d="M39,619H-76v6H39v-6Zm-11,5v3h5v10H-11V627h5v-3h3v3H25v-3h3Zm-96,0s0.54,1.41,0,9h3a11.178,11.178,0,0,1,10-8h2s9.984,0.41,10,8h3l10-9H-68Z"/>
  <path class="cls-75" d="M41,585H66l11,26v5H75v11h2v6H70s-1.889-9.32-12-8c0,0-8.44-1.1-12,8H39V588S38.885,585,41,585Z"/>
  <path class="cls-76" d="M63,588H43v22H71Z"/>
  <path class="cls-8" d="M550.592,526.337H527.839v17.249H524.9v20.919H512.425V591.3h56.15V574.047H562.7V557.165h-8.441V543.953h-4.037Z"/>
  <path class="cls-77" d="M534.811,564.505v-9.542h19.451V556.8H539.949v7.707h-5.138Z"/>
  <path class="cls-9" d="M549.491,591.3V574.047h1.468V591.3h-1.468Zm-27.524,0h-9.542V564.505h9.542V591.3Zm10.643-64.959v17.616h-0.734v20.552H524.9V543.586h2.936V526.337h4.771Zm7.328,30.476h5.156V564.5h-5.156v-7.687Z"/>
  <path class="cls-10" d="M541.781,543.938h5.157v6.625h-5.157v-6.625Zm11,12.875h2.594v4.75h-2.594v-4.75Zm0,13.187h2.594v4.063h-2.594V570Zm4.407,4.406h5.156v4.407h-5.156v-4.407Zm0.375,12.844h4.781v4.406h-4.781V587.25Zm-25.688-2.562h7.719v6.968h-7.719v-6.968ZM531.5,564.5h7.719v6.969H531.5V564.5Zm7.719-38.156H544v4.75h-4.781v-4.75Z"/>
</svg>
